<?xml version="1.0" standalone="no"?>
<!DOCTYPE svg PUBLIC "-//W3C//DTD SVG 20010904//EN"
 "http://www.w3.org/TR/2001/REC-SVG-20010904/DTD/svg10.dtd">
<svg version="1.0" xmlns="http://www.w3.org/2000/svg"
 width="91.000000pt" height="91.000000pt" viewBox="0 0 91.000000 91.000000"
 preserveAspectRatio="xMidYMid meet">
<metadata>
Created by potrace 1.14, written by Peter Selinger 2001-2017
</metadata>
<g transform="translate(0.000000,91.000000) scale(0.100000,-0.100000)"
fill="#000000" stroke="none">
<path d="M324 852 c-65 -3 -75 -6 -110 -36 -37 -32 -38 -36 -42 -105 l-4 -71
-49 0 -49 0 -1 -47 c-1 -27 -3 -64 -4 -83 -3 -29 -11 -215 -19 -400 l-1 -35
410 0 410 0 -2 30 c-2 48 -14 216 -18 265 -2 25 -4 51 -4 58 -1 9 -30 12 -111
12 l-110 0 -1 53 c-1 28 -3 63 -4 77 -1 14 -3 35 -4 48 -1 20 -6 22 -51 22
l-50 0 0 65 c0 57 -3 68 -30 99 -38 43 -67 52 -156 48z m-44 -57 c-16 -26 -22
-53 -23 -95 -1 -59 -2 -60 -29 -60 -27 0 -28 1 -28 58 0 66 17 97 64 118 17 7
32 13 34 14 2 0 -6 -16 -18 -35z m157 13 c28 -14 45 -55 47 -115 1 -45 -1 -48
-26 -51 -16 -2 -28 0 -29 5 0 4 -2 34 -3 66 -2 41 -10 67 -25 87 -23 31 -17
33 36 8z m-61 -23 c9 -14 19 -52 21 -85 l5 -60 -60 0 -59 0 2 53 c3 72 3 70
23 95 23 29 48 28 68 -3z"/>
</g>
</svg>
